<?xml version="1.0" encoding="UTF-8"?>
<svg xmlns="http://www.w3.org/2000/svg" viewBox="0 0 800 500" width="800" height="500" font-family="'Noto Sans CJK SC','PingFang SC','Microsoft YaHei',Arial,sans-serif">
<rect width="800" height="500" fill="#ffffff"/>
<text x="400" y="32" text-anchor="middle" font-size="16" font-weight="bold" fill="#1e293b">&#x5F62;&#x6001;&#x7A7A;&#x95F4;&#x666F;&#x89C2; / Morphological Landscape</text>
<line x1="100" y1="400" x2="720" y2="400" stroke="#1e293b" stroke-width="2"/>
<line x1="100" y1="400" x2="100" y2="60" stroke="#1e293b" stroke-width="2"/>
<text x="410" y="430" text-anchor="middle" font-size="12" fill="#1e293b">&#x5F62;&#x6001;&#x7A7A;&#x95F4; B-space (Morphological Space)</text>
<text x="55" y="230" text-anchor="middle" font-size="12" fill="#1e293b" transform="rotate(-90,55,230)">V(B,E) &#x6027;&#x80FD; / Performance</text>
<path d="M 120,380 C 160,370 180,340 210,300 C 240,260 260,200 290,170 C 310,150 330,160 350,200 C 370,240 380,280 400,290 C 420,300 440,260 470,180 C 500,100 520,80 540,90 C 560,100 570,150 590,200 C 610,250 630,300 660,350 C 680,370 700,380 710,390" fill="#dbeafe" stroke="#2563eb" stroke-width="2.5" opacity="0.4"/>
<path d="M 120,380 C 160,370 180,340 210,300 C 240,260 260,200 290,170 C 310,150 330,160 350,200 C 370,240 380,280 400,290 C 420,300 440,260 470,180 C 500,100 520,80 540,90 C 560,100 570,150 590,200 C 610,250 630,300 660,350 C 680,370 700,380 710,390" fill="none" stroke="#2563eb" stroke-width="2.5"/>
<circle cx="290" cy="170" r="8" fill="#dc2626" stroke="white" stroke-width="2"/>
<text x="290" y="155" text-anchor="middle" font-size="11" font-weight="bold" fill="#dc2626">b*(&#x03B5;&#x2081;)</text>
<text x="290" y="142" text-anchor="middle" font-size="9" fill="#6b7280">&#x5438;&#x5F15;&#x5B50; 1</text>
<circle cx="530" cy="85" r="10" fill="#059669" stroke="white" stroke-width="2"/>
<text x="530" y="68" text-anchor="middle" font-size="11" font-weight="bold" fill="#059669">b*(&#x03B5;&#x2082;)</text>
<text x="530" y="55" text-anchor="middle" font-size="9" fill="#6b7280">&#x5168;&#x5C40;&#x6700;&#x4F18;</text>
<text x="400" y="315" text-anchor="middle" font-size="10" fill="#6b7280">&#x76C6;&#x5730; / Basin</text>
<path d="M 200,350 C 230,310 260,250 290,170" fill="none" stroke="#ea580c" stroke-width="2" stroke-dasharray="6,3"/>
<text x="210" y="340" font-size="10" fill="#ea580c" font-weight="bold">U &#x641C;&#x7D22;</text>
<path d="M 350,200 C 420,280 460,200 500,100" fill="none" stroke="#ea580c" stroke-width="2" stroke-dasharray="6,3"/>
<text x="430" y="270" font-size="10" fill="#ea580c" font-weight="bold">&#x7FFB;&#x5C71;</text>
<rect x="570" y="420" width="200" height="65" rx="6" ry="6" fill="white" stroke="#6b7280" stroke-width="1"/>
<circle cx="590" cy="437" r="5" fill="#dc2626"/>
<text x="600" y="441" font-size="10" fill="#1e293b">&#x5C40;&#x90E8;&#x5438;&#x5F15;&#x5B50; / Local</text>
<circle cx="590" cy="455" r="5" fill="#059669"/>
<text x="600" y="459" font-size="10" fill="#1e293b">&#x5168;&#x5C40;&#x6700;&#x4F18; / Global</text>
<line x1="580" y1="473" x2="600" y2="473" stroke="#ea580c" stroke-width="2" stroke-dasharray="4,2"/>
<text x="610" y="477" font-size="10" fill="#1e293b">U &#x641C;&#x7D22;&#x8DEF;&#x5F84;</text>

<text x="400" y="470" text-anchor="middle" font-size="12" fill="#6b7280" font-style="italic">Figure 8: &#x5F62;&#x6001;&#x7A7A;&#x95F4;&#x666F;&#x89C2;&#x56FE; -- Morphological Landscape (from r-note-008)</text>
</svg>
