<?xml version="1.0" encoding="UTF-8"?>
<svg xmlns="http://www.w3.org/2000/svg" viewBox="0 0 800 520" width="800" height="520" font-family="'Noto Sans CJK SC','PingFang SC','Microsoft YaHei',Arial,sans-serif">
<rect width="800" height="520" fill="#ffffff"/>
<text x="400" y="35" text-anchor="middle" font-size="18" font-weight="bold" fill="#1e293b">&#x534F;&#x540C;&#x6F14;&#x5316;&#x793A;&#x610F;&#x56FE; (H2) / Synergistic Evolution</text>
<rect x="200" y="55" width="400" height="40" rx="8" ry="8" fill="#ea580c" opacity="0.15" stroke="#ea580c" stroke-width="1.5"/>
<text x="400" y="72" text-anchor="middle" font-size="13" font-weight="bold" fill="#ea580c">H2: f(P,T,M,C) &gt; f(P) + f(T) + f(M) + f(C)</text>
<text x="400" y="88" text-anchor="middle" font-size="10" fill="#ea580c">&#x8D85;&#x52A0;&#x6027; Superadditivity</text>
<text x="200" y="130" text-anchor="middle" font-size="14" font-weight="bold" fill="#6b7280">&#x72EC;&#x7ACB;&#x4F18;&#x5316; / Independent</text>
<rect x="120" y="270.0" width="30" height="60.0" rx="4" ry="4" fill="#2563eb" opacity="0.7"/>
<text x="135" y="345" text-anchor="middle" font-size="11" font-weight="bold" fill="#2563eb">P</text>
<rect x="160" y="280.0" width="30" height="50.0" rx="4" ry="4" fill="#059669" opacity="0.7"/>
<text x="175" y="345" text-anchor="middle" font-size="11" font-weight="bold" fill="#059669">T</text>
<rect x="200" y="290.0" width="30" height="40.0" rx="4" ry="4" fill="#7c3aed" opacity="0.7"/>
<text x="215" y="345" text-anchor="middle" font-size="11" font-weight="bold" fill="#7c3aed">M</text>
<rect x="240" y="290.0" width="30" height="40.0" rx="4" ry="4" fill="#dc2626" opacity="0.7"/>
<text x="255" y="345" text-anchor="middle" font-size="11" font-weight="bold" fill="#dc2626">C</text>
<rect x="270" y="130" width="30" height="200" rx="4" ry="4" fill="#6b7280" opacity="0.3" stroke="#6b7280" stroke-width="1" stroke-dasharray="4,3"/>
<text x="285" y="125" text-anchor="middle" font-size="10" fill="#6b7280">&#x603B;&#x8BA1;</text>
<text x="285" y="145" text-anchor="middle" font-size="11" font-weight="bold" fill="#6b7280">0.95</text>
<text x="600" y="130" text-anchor="middle" font-size="14" font-weight="bold" fill="#1e293b">&#x534F;&#x540C;&#x4F18;&#x5316; / Joint</text>
<rect x="560" y="160" width="80" height="170" rx="8" ry="8" fill="#ea580c" opacity="0.2" stroke="#ea580c" stroke-width="2.5"/>
<text x="600" y="200" text-anchor="middle" font-size="20" font-weight="bold" fill="#ea580c">P</text>
<text x="600" y="225" text-anchor="middle" font-size="20" font-weight="bold" fill="#ea580c">T</text>
<text x="600" y="250" text-anchor="middle" font-size="20" font-weight="bold" fill="#ea580c">M</text>
<text x="600" y="275" text-anchor="middle" font-size="20" font-weight="bold" fill="#ea580c">C</text>
<text x="600" y="320" text-anchor="middle" font-size="13" font-weight="bold" fill="#ea580c">1.30+</text>
<text x="600" y="340" text-anchor="middle" font-size="10" fill="#ea580c">&#x534F;&#x540C;&#x589E;&#x76CA;</text>
<path d="M 500 140 L 510 155 L 490 155 Z" fill="#059669"/>
<text x="500" y="172" text-anchor="middle" font-size="11" font-weight="bold" fill="#059669">+37%</text>
<rect x="100" y="380" width="600" height="70" rx="10" ry="10" fill="#f3f4f6" stroke="#6b7280" stroke-width="1"/>
<text x="400" y="405" text-anchor="middle" font-size="12" font-weight="bold" fill="#1e293b">&#x8026;&#x5408;&#x5173;&#x7CFB; / Coupling Relations</text>
<line x1="180" y1="440" x2="310" y2="440" stroke="#ea580c" stroke-width="1.5" opacity="0.6"/>
<line x1="310" y1="440" x2="440" y2="440" stroke="#ea580c" stroke-width="1.5" opacity="0.6"/>
<line x1="440" y1="440" x2="570" y2="440" stroke="#ea580c" stroke-width="1.5" opacity="0.6"/>
<line x1="180" y1="440" x2="440" y2="440" stroke="#ea580c" stroke-width="1.5" opacity="0.6"/>
<line x1="310" y1="440" x2="570" y2="440" stroke="#ea580c" stroke-width="1.5" opacity="0.6"/>
<circle cx="180" cy="440" r="12" fill="#1e293b"/>
<text x="180" y="444" text-anchor="middle" font-size="10" font-weight="bold" fill="white">P</text>
<circle cx="310" cy="440" r="12" fill="#1e293b"/>
<text x="310" y="444" text-anchor="middle" font-size="10" font-weight="bold" fill="white">T</text>
<circle cx="440" cy="440" r="12" fill="#1e293b"/>
<text x="440" y="444" text-anchor="middle" font-size="10" font-weight="bold" fill="white">M</text>
<circle cx="570" cy="440" r="12" fill="#1e293b"/>
<text x="570" y="444" text-anchor="middle" font-size="10" font-weight="bold" fill="white">C</text>
<text x="400" y="470" text-anchor="middle" font-size="11" fill="#6b7280">&#x7EC4;&#x4EF6;&#x95F4;&#x5B58;&#x5728;&#x8026;&#x5408;&#x7EA6;&#x675F;&#xFF0C;&#x72EC;&#x7ACB;&#x4F18;&#x5316;&#x5FFD;&#x7565;&#x534F;&#x540C;&#x6548;&#x5E94;</text>

<text x="400" y="490" text-anchor="middle" font-size="12" fill="#6b7280" font-style="italic">Figure 7: &#x534F;&#x540C;&#x6F14;&#x5316;&#x793A;&#x610F;&#x56FE; -- Synergistic Evolution (H2 Superadditivity)</text>
</svg>
